<svg width="512" height="512" viewBox="0 0 512 512" fill="none" xmlns="http://www.w3.org/2000/svg">
<rect width="512" height="512" fill="#4F5E50" fill-opacity="0.898039"/>
<g clip-path="url(#clip0_11_13)">
<path d="M369.222 113.003C366.603 113.003 363.991 113.32 361.458 113.948C360.622 114.155 359.991 114.841 359.853 115.69C359.716 116.539 360.1 117.39 360.828 117.849C368.999 123.005 373.877 131.842 373.877 141.487C373.877 154.361 365.16 165.508 352.679 168.597C351.843 168.802 351.212 169.488 351.074 170.339C350.937 171.188 351.32 172.039 352.049 172.498C357.185 175.739 363.123 177.452 369.221 177.452C386.989 177.452 401.445 162.996 401.445 145.228C401.446 127.459 386.989 113.003 369.222 113.003Z" fill="#D2D9D5"/>
<path d="M141.02 192.804L134.395 192.078L130.198 186.9C129.886 186.513 129.393 186.318 128.902 186.38C128.41 186.443 127.985 186.759 127.781 187.212L125.042 193.288L118.82 195.679C118.356 195.857 118.018 196.265 117.927 196.752C117.835 197.241 118.003 197.742 118.371 198.075L123.304 202.558L123.656 209.214C123.682 209.709 123.964 210.157 124.4 210.396C124.613 210.512 124.849 210.57 125.086 210.57C125.331 210.57 125.576 210.507 125.796 210.38L131.583 207.074L138.022 208.798C138.503 208.925 139.014 208.796 139.375 208.455C139.737 208.114 139.895 207.61 139.794 207.123L138.439 200.597L142.066 195.006C142.337 194.589 142.371 194.062 142.159 193.614C141.944 193.166 141.514 192.859 141.02 192.804Z" fill="#D2D9D5"/>
<path d="M179.85 151.578C179.637 151.13 179.206 150.823 178.713 150.77L172.088 150.043L167.891 144.864C167.578 144.479 167.086 144.283 166.595 144.346C166.102 144.41 165.677 144.724 165.473 145.179L162.734 151.255L156.513 153.646C156.049 153.824 155.71 154.229 155.619 154.718C155.528 155.206 155.696 155.707 156.063 156.042L160.996 160.525L161.347 167.18C161.374 167.676 161.655 168.124 162.091 168.36C162.305 168.478 162.541 168.535 162.776 168.535C163.022 168.535 163.267 168.473 163.487 168.347L169.274 165.041L175.712 166.764C176.194 166.892 176.705 166.763 177.066 166.422C177.427 166.081 177.586 165.576 177.484 165.09L176.128 158.564L179.756 152.972C180.028 152.556 180.063 152.028 179.85 151.578Z" fill="#D2D9D5"/>
<path d="M103.328 150.77L96.703 150.043L92.5066 144.865C92.1932 144.479 91.7033 144.282 91.21 144.345C90.7175 144.409 90.2922 144.723 90.0881 145.178L87.3494 151.254L81.128 153.645C80.664 153.823 80.3256 154.228 80.2335 154.717C80.1422 155.205 80.3101 155.706 80.6786 156.041L85.6111 160.524L85.9624 167.179C85.9891 167.675 86.2706 168.123 86.7071 168.359C86.9206 168.477 87.1565 168.534 87.3924 168.534C87.6378 168.534 87.8823 168.472 88.1027 168.346L93.8902 165.04L100.329 166.763C100.81 166.891 101.321 166.762 101.682 166.421C102.044 166.08 102.202 165.575 102.1 165.089L100.744 158.562L104.372 152.971C104.643 152.555 104.678 152.028 104.465 151.577C104.252 151.131 103.821 150.823 103.328 150.77Z" fill="#D2D9D5"/>
<path d="M458.284 382.818H423.416L263.571 158.116L287.451 121.88C289.191 119.24 288.461 115.687 285.819 113.946C283.179 112.206 279.626 112.935 277.886 115.578L255.938 148.883L233.989 115.577C232.249 112.935 228.696 112.205 226.055 113.945C223.414 115.685 222.684 119.239 224.424 121.879L248.304 158.116L88.4592 382.818H53.5916C48.8468 382.818 45 386.664 45 391.409C45 396.155 48.8468 400 53.5916 400H458.285C463.029 400 466.876 396.154 466.876 391.409C466.875 386.664 463.029 382.818 458.284 382.818ZM255.938 270.419L300.445 382.818H211.432L255.938 270.419Z" fill="#D2D9D5"/>
</g>
<defs>
<clipPath id="clip0_11_13">
<rect width="349" height="349" fill="white" transform="translate(82 82)"/>
</clipPath>
</defs>
</svg>
