<svg width="96" height="96" fill="none" viewBox="0 0 300 300" class="" xmlns="http://www.w3.org/2000/svg" id="preview-svg"><path d="M286.336 127.576C291.925 127.576 301 131.965 298.333 146.965C297.54 151.426 298.018 153.111 296.224 157.727C295.27 160.181 294.191 162.634 292.881 164.99C291.586 167.32 290.184 169.6 288.576 171.722C284.107 177.679 278.43 183.266 272.081 188.385C263.384 195.397 253.58 201.65 244.417 206.784C223.1 220.441 201.148 230.56 178.018 237.242C155.064 243.874 130.977 247.001 105.368 247.227C93.7746 247.125 81.2619 246.795 69.3189 244.788C60.6323 243.328 52.2401 240.988 44.6152 237.354C37.2252 233.831 30.7325 229.233 24.9503 223.949C16.5117 216.237 9.59814 207.063 3.54484 197.858C0.46559 193.194 -0.117527 177.645 4.54719 174.565C9.21152 171.486 15.4984 172.773 18.5777 177.437C22.9337 184.011 27.759 190.601 33.4642 196.424C38.6232 201.69 44.5175 206.324 51.5096 209.628C57.4685 212.446 64.0463 214.172 70.8275 215.298C81.7099 217.106 93.1103 217.346 103.671 217.43C127.476 218.042 149.915 215.738 171.506 210.501C193.426 205.183 214.49 196.944 235.099 185.203C243.188 179.939 251.89 173.716 259.364 166.679C264.177 162.146 268.358 157.215 271.546 152.088C273.539 146.527 275.126 141.283 276.367 135.649C277.874 128.826 283.334 127.576 286.336 127.576Z" fill="black"/><path fill-rule="evenodd" clip-rule="evenodd" d="M209.399 57.9891C215.354 60.5325 214.974 72.3623 215.52 77.818C217.222 94.8408 218.5 115.414 212.865 131.801C210.729 138.014 203.833 152.221 194.81 149.704C189.5 148.223 186.686 138.46 185.323 134.007C179.962 116.481 185.373 99.9735 186.241 81.9513C186.94 67.4418 192.687 50.8509 209.399 57.9891Z" fill="black"/><path fill-rule="evenodd" clip-rule="evenodd" d="M90.5532 57.9891C84.5983 60.5325 84.9781 72.3623 84.4325 77.818C82.7304 94.8408 81.4526 115.414 87.0872 131.801C89.2236 138.014 96.1192 152.221 105.142 149.704C110.452 148.223 113.267 138.46 114.629 134.007C119.991 116.481 114.579 99.9735 113.711 81.9513C113.012 67.4418 107.265 50.8509 90.5532 57.9891Z" fill="black"/></svg>
